<svg width="17" height="16" viewBox="0 0 17 16" fill="none" xmlns="http://www.w3.org/2000/svg">
<path d="M12.3637 10.3432C13.3596 9.02177 13.8056 7.3834 13.6126 5.75589C13.4196 4.12838 12.6017 2.63176 11.3225 1.56544C10.0434 0.49912 8.39738 -0.0582551 6.71376 0.00482458C5.03014 0.0679042 3.4331 0.746787 2.24215 1.90565C1.05119 3.06452 0.354153 4.6179 0.290485 6.25503C0.226817 7.89215 0.801214 9.49229 1.89876 10.7353C2.99631 11.9783 4.53606 12.7725 6.20997 12.9591C7.88388 13.1456 9.5685 12.7107 10.9268 11.7414H10.9258C10.9566 11.7814 10.9895 11.8194 11.0266 11.8564L14.9864 15.7068C15.1793 15.8944 15.4409 15.9999 15.7137 16C15.9866 16.0001 16.2483 15.8948 16.4413 15.7073C16.6343 15.5197 16.7428 15.2653 16.7428 15C16.7429 14.7348 16.6347 14.4803 16.4418 14.2926L12.4819 10.4422C12.4452 10.406 12.4056 10.3726 12.3637 10.3422V10.3432ZM12.629 6.49882C12.629 7.22116 12.4827 7.93643 12.1984 8.60379C11.9141 9.27115 11.4974 9.87753 10.9721 10.3883C10.4469 10.8991 9.82324 11.3043 9.13691 11.5807C8.45058 11.8571 7.71497 11.9994 6.97209 11.9994C6.22921 11.9994 5.49361 11.8571 4.80728 11.5807C4.12095 11.3043 3.49733 10.8991 2.97204 10.3883C2.44674 9.87753 2.03006 9.27115 1.74577 8.60379C1.46148 7.93643 1.31516 7.22116 1.31516 6.49882C1.31516 5.03998 1.91116 3.64089 2.97204 2.60933C4.03292 1.57777 5.47178 0.998251 6.97209 0.998251C8.4724 0.998251 9.91127 1.57777 10.9721 2.60933C12.033 3.64089 12.629 5.03998 12.629 6.49882Z" fill="white"/>
</svg>
